<svg width="308" height="81" viewBox="0 0 308 81" fill="none" xmlns="http://www.w3.org/2000/svg">
<path d="M40.0071 80.0143C62.1025 80.0143 80.0143 62.1025 80.0143 40.0071C80.0143 17.9118 62.1025 0 40.0071 0C17.9118 0 0 17.9118 0 40.0071C0 62.1025 17.9118 80.0143 40.0071 80.0143Z" fill="#0E2639"/>
<path d="M170.62 15.7797H194.032V18.0094H173.093V31.3737H191.888V33.6035H173.093V48.3686H170.62V15.7797Z" fill="#0E2639"/>
<path d="M198.392 32.1744V32.0743C198.392 23.1839 205.081 15.2224 215.158 15.2224C225.235 15.2224 231.824 23.0981 231.824 31.9886V32.0743C231.824 40.9648 225.135 48.9262 215.058 48.9262C204.981 48.9262 198.392 41.0506 198.392 32.1601V32.1744ZM229.266 32.1744V32.0743C229.266 24.0129 223.277 17.4093 215.072 17.4093C206.868 17.4093 200.965 23.9271 200.965 31.9886V32.0743C200.965 40.1358 206.954 46.7393 215.158 46.7393C223.363 46.7393 229.266 40.2215 229.266 32.1601V32.1744Z" fill="#0E2639"/>
<path d="M237.813 32.1744V32.0743C237.813 23.1839 244.502 15.2224 254.579 15.2224C264.656 15.2224 271.245 23.0981 271.245 31.9886V32.0743C271.245 40.9648 264.556 48.9262 254.479 48.9262C244.402 48.9262 237.813 41.0506 237.813 32.1601V32.1744ZM268.672 32.1744V32.0743C268.672 24.0129 262.684 17.4093 254.479 17.4093C246.275 17.4093 240.372 23.9271 240.372 31.9886V32.0743C240.372 40.1358 246.361 46.7393 254.565 46.7393C262.769 46.7393 268.672 40.2215 268.672 32.1601V32.1744Z" fill="#0E2639"/>
<path d="M278.692 15.7799H289.755C300.204 15.7799 307.422 22.8122 307.422 31.9886V32.0743C307.422 41.2507 300.204 48.3688 289.755 48.3688H278.692V15.7799ZM281.165 18.0239V46.1533H289.755C299.017 46.1533 304.849 39.9643 304.849 32.1887V32.0886C304.849 24.3559 299.003 18.0239 289.755 18.0239H281.165Z" fill="#0E2639"/>
<path d="M93.0069 15.7799H107.629C111.36 15.7799 114.29 16.809 116.148 18.6671C117.592 20.1108 118.335 21.8831 118.335 24.07V24.1558C118.335 28.0722 116.105 30.159 113.675 31.4168C117.491 32.7175 120.15 34.9044 120.15 39.3354V39.4211C120.15 45.2385 115.347 48.3545 108.086 48.3545H92.9926V15.7799H93.0069ZM112.617 24.9991C112.617 22.4406 110.573 20.854 106.886 20.854H98.6385V29.5158H106.471C110.145 29.5158 112.617 28.0722 112.617 25.0992V24.9991ZM107.729 34.3613H98.6385V43.2946H108.144C112.06 43.2946 114.433 41.7509 114.433 38.8208V38.7207C114.433 35.9764 112.246 34.347 107.729 34.347V34.3613Z" fill="#0E2639"/>
<path d="M126.639 15.7799H132.371V32.1744L147.879 15.7799H154.954L141.347 29.8017L155.555 48.3831H148.565L137.431 33.7181L132.357 38.9351V48.3831H126.625V15.7799H126.639Z" fill="#0E2639"/>
<path d="M92.8354 58.2883H95.0652V68.2937H92.8354V58.2883Z" fill="#E10A17"/>
<path d="M105.113 58.2884H107.172L111.917 64.4488V58.2884H114.118V68.2937H112.217L107.315 61.9332V68.2937H105.113V58.2884Z" fill="#E10A17"/>
<path d="M126.411 60.3037H123.323V58.2741H131.713V60.3037H128.64V68.2794H126.411V60.3037Z" fill="#E10A17"/>
<path d="M140.947 58.2884H148.58V60.2466H143.162V62.2762H147.936V64.2344H143.162V66.3355H148.651V68.2937H140.947V58.2884Z" fill="#E10A17"/>
<path d="M158.156 58.2884H162.787C164.074 58.2884 165.074 58.6457 165.732 59.3032C166.289 59.8606 166.604 60.6468 166.604 61.5901V61.6187C166.604 63.2339 165.717 64.2487 164.431 64.7204L166.904 68.2937H164.302L162.13 65.092H160.386V68.2937H158.156V58.2884ZM162.63 63.1338C163.716 63.1338 164.331 62.5621 164.331 61.7188V61.6902C164.331 60.7468 163.659 60.2608 162.587 60.2608H160.372V63.1338H162.63Z" fill="#E10A17"/>
<path d="M176.123 58.2884H178.181L182.927 64.4488V58.2884H185.128V68.2937H183.227L178.324 61.9332V68.2937H176.123V58.2884Z" fill="#E10A17"/>
<path d="M198.535 58.2169H200.593L204.938 68.2937H202.609L201.679 66.0497H197.406L196.477 68.2937H194.204L198.549 58.2169H198.535ZM200.879 64.0915L199.535 60.8469L198.192 64.0915H200.879Z" fill="#E10A17"/>
<path d="M215.072 60.3037H211.985V58.2741H220.375V60.3037H217.302V68.2794H215.072V60.3037Z" fill="#E10A17"/>
<path d="M229.709 58.2884H231.939V68.2937H229.709V58.2884Z" fill="#E10A17"/>
<path d="M241.529 63.3053V63.2768C241.529 60.4324 243.802 58.1026 246.918 58.1026C250.034 58.1026 252.278 60.4038 252.278 63.2482V63.2768C252.278 66.1211 250.005 68.451 246.889 68.451C243.773 68.451 241.529 66.1497 241.529 63.3053ZM249.962 63.3053V63.2768C249.962 61.5615 248.69 60.1322 246.889 60.1322C245.088 60.1322 243.859 61.533 243.859 63.2482V63.2768C243.859 64.992 245.131 66.4213 246.918 66.4213C248.705 66.4213 249.948 65.0205 249.948 63.3053H249.962Z" fill="#E10A17"/>
<path d="M261.797 58.2884H263.856L268.601 64.4488V58.2884H270.802V68.2937H268.901L263.999 61.9332V68.2937H261.797V58.2884Z" fill="#E10A17"/>
<path d="M284.209 58.2169H286.268L290.613 68.2937H288.283L287.354 66.0497H283.08L282.151 68.2937H279.878L284.209 58.2169ZM286.553 64.0915L285.21 60.8469L283.866 64.0915H286.553Z" fill="#E10A17"/>
<path d="M299.675 58.2884H301.905V66.2927H306.95V68.2937H299.675V58.2884Z" fill="#E10A17"/>
<path d="M29.0727 41.4079C30.4306 41.4079 31.5455 40.3073 31.5455 38.9351H26.6C26.6 40.293 27.7006 41.4079 29.0727 41.4079Z" fill="#BA8F1F"/>
<path d="M29.0727 36.4767C27.7149 36.4767 26.6 37.5773 26.6 38.9494H31.5455C31.5455 37.5916 30.4449 36.4767 29.0727 36.4767Z" fill="#FFCD44"/>
<path d="M45.7379 35.3475C46.7956 34.4899 47.4531 33.2035 47.4531 31.7456C47.4531 29.087 45.2948 26.9287 42.6362 26.9287C42.4218 26.9287 42.2217 26.9859 42.0073 27.0145V29.1585C42.2074 29.1156 42.4218 29.087 42.6362 29.087C44.1085 29.087 45.3091 30.2877 45.3091 31.7599C45.3091 33.2321 44.1656 34.2898 42.6362 34.2898C42.5505 34.2898 42.479 34.2898 42.3932 34.2898C42.2789 34.2898 42.1503 34.2755 42.0073 34.2755V36.4767C42.1503 36.4767 42.2789 36.4767 42.4075 36.4624C43.9512 36.3337 45.2376 37.42 45.2948 38.878H47.4388C47.4102 37.4629 46.767 36.2051 45.7379 35.3761V35.3475Z" fill="#FFCD44"/>
<path d="M47.4397 38.8494H45.2957C45.2957 38.8494 45.2957 38.9209 45.2957 38.9494C45.2957 40.3931 44.1522 41.4794 42.6228 41.4794C42.5371 41.4794 42.4656 41.4794 42.3798 41.4794C42.2655 41.4794 42.1369 41.4651 41.9939 41.4651V43.6663C42.1369 43.6663 42.2655 43.6663 42.3941 43.652C43.9664 43.5233 45.2957 44.6525 45.2957 46.1676C45.2957 47.6827 44.0951 48.8405 42.6228 48.8405C42.4084 48.8405 42.194 48.8119 41.9939 48.769V50.913C42.2083 50.9416 42.4084 50.9845 42.6228 50.9845C45.2814 50.9845 47.4397 48.8262 47.4397 46.1676C47.4397 44.7097 46.7822 43.4233 45.7245 42.5657C46.7822 41.7081 47.4397 40.4217 47.4397 38.9637C47.4397 38.9351 47.4397 38.8923 47.4397 38.8637V38.8494Z" fill="#BA8F1F"/>
<path d="M57.245 38.9351C59.7749 34.7615 62.4192 32.7318 63.8056 31.8742C63.9914 31.7599 64.1772 31.6598 64.3773 31.574L61.9618 38.9351H64.9777L68.4938 28.258H66.5214C65.0206 28.258 63.5769 28.6582 62.3334 29.43C60.6325 30.4735 57.345 33.0034 54.372 38.2205L53.9718 38.9351H57.2735H57.245Z" fill="#FFCD44"/>
<path d="M61.9475 38.9494L64.3773 46.3105C64.1772 46.2248 63.9914 46.1247 63.8056 46.0104C62.4191 45.1528 59.7749 43.1231 57.2449 38.9494H53.9432L54.3434 39.6498C57.3164 44.8669 60.6039 47.3968 62.3048 48.4402C63.5483 49.2121 65.0062 49.6123 66.4928 49.6123H68.4652L64.9491 38.9351H61.9332L61.9475 38.9494Z" fill="#BA8F1F"/>
<path d="M11.6205 38.9494C11.6205 39.0352 11.6205 39.121 11.6491 39.221C11.6634 39.3211 11.692 39.4068 11.7349 39.5069C11.7492 39.5498 11.7492 39.5926 11.7777 39.6355C19.7249 54.5435 28.4867 55.1581 29.8731 55.1581C29.9732 55.1581 30.0304 55.1581 30.059 55.1581C30.8451 55.1152 31.4311 54.4434 31.3882 53.6573C31.3454 52.8712 30.7165 52.2566 29.9017 52.2994C29.7874 52.2709 22.0833 52.3995 14.665 38.9637H11.6205V38.9494Z" fill="#BA8F1F"/>
<path d="M29.8874 25.5994C30.645 25.628 31.3311 25.042 31.3882 24.2558C31.4311 23.4697 30.8308 22.7979 30.0447 22.7408C29.6445 22.7122 20.2394 22.3548 11.7634 38.2634C11.7349 38.3062 11.7492 38.3491 11.7206 38.392C11.6777 38.4778 11.6491 38.5778 11.6348 38.6779C11.6205 38.7636 11.6062 38.8494 11.6062 38.9494H14.6507C22.0404 25.5565 29.7159 25.5851 29.8874 25.6137V25.5994Z" fill="#FFCD44"/>
</svg>
